<svg xmlns="http://www.w3.org/2000/svg" viewBox="0 0 512 512" role="img" aria-label="CSGO">
  <rect width="512" height="512" fill="#2c3557"/>
  <path d="M324 0h188v512H324c10-39 13-78 8-117-3-24-12-44-28-61-10-11-20-22-26-37-10-25-5-51 7-75 8-16 18-29 29-43 8-10 15-21 15-35 0-14-9-27-21-34-11-7-24-10-36-13-10-3-18-7-22-16-6-14 2-30 14-40 15-13 37-13 60-41Z" fill="#eda900"/>
  <path fill="#fff" d="M262 0c16 1 31 6 45 14 5 16 5 32 2 48-8 8-19 13-31 14l-8 27 41 14 57 40 45-5 1-6h79v5l-72 12-4 11-28 3-9-5-18 7 25 18 16-5 28 10 1 5-24-3-17 4-32-13-29-16-28 4-13 54-33 13 17 20c7 8 12 18 15 29l15 63c3 12 3 24 0 36l-17 89h-39l5-83c1-12-2-24-8-35l-36-63-26 75-30 40-11 71H85l7-54 23-42 14-72 39-78-51-13 6-61h20l-3-50c-2-34 13-56 45-66 9-33 35-51 77-52Zm-78 142-27 7 2 34 28-4-3-37Z"/>
</svg>
